<svg width="645" height="570" viewBox="0 0 645 570" fill="none" xmlns="http://www.w3.org/2000/svg">
<g clip-path="url(#clip0_2_223)">
<path d="M559.995 340.901H17.6544C13.2799 340.896 9.08593 339.156 5.99265 336.063C2.89936 332.97 1.15939 328.776 1.15445 324.401V18.6016H576.495V324.401C576.49 328.776 574.75 332.97 571.656 336.063C568.563 339.156 564.369 340.896 559.995 340.901Z" fill="#E6E6E6"/>
<path d="M538.412 309.318H39.2371C36.9835 309.315 34.823 308.419 33.2295 306.825C31.636 305.232 30.7396 303.071 30.7371 300.818V58.6841C30.7396 56.4305 31.636 54.27 33.2295 52.6765C34.823 51.0829 36.9835 50.1866 39.2371 50.1841H538.412C540.665 50.1866 542.826 51.0829 544.419 52.6764C546.013 54.2699 546.909 56.4305 546.912 58.6841V300.818C546.909 303.071 546.013 305.232 544.419 306.826C542.826 308.419 540.665 309.315 538.412 309.318Z" fill="white"/>
<path d="M577.649 29.7476H0V16.5C0.00494149 12.1254 1.74492 7.93148 4.8382 4.8382C7.93148 1.74492 12.1254 0.00494149 16.5 0H561.149C565.524 0.00494149 569.718 1.74492 572.811 4.8382C575.904 7.93148 577.644 12.1254 577.649 16.5V29.7476Z" fill="#04334D"/>
<path d="M419.548 556.311H407.288L401.456 509.023H419.55L419.548 556.311Z" fill="#A0616A"/>
<path d="M398.531 552.808H422.175V567.695H383.644C383.644 565.74 384.029 563.804 384.777 561.998C385.526 560.191 386.622 558.55 388.004 557.168C389.387 555.786 391.028 554.689 392.834 553.941C394.64 553.193 396.576 552.808 398.531 552.808Z" fill="#2F2E41"/>
<path d="M470.548 556.311H458.288L452.456 509.023H470.55L470.548 556.311Z" fill="#A0616A"/>
<path d="M449.531 552.808H473.175V567.695H434.644C434.644 565.74 435.029 563.804 435.777 561.998C436.526 560.191 437.622 558.55 439.004 557.168C440.387 555.786 442.028 554.689 443.834 553.941C445.64 553.193 447.576 552.808 449.531 552.808Z" fill="#2F2E41"/>
<path d="M468.987 545.443H456.507C455.38 545.437 454.295 545.01 453.466 544.247C452.636 543.483 452.122 542.438 452.023 541.315L441.447 413.916C441.416 413.546 441.249 413.2 440.977 412.946C440.706 412.692 440.35 412.548 439.978 412.541C439.607 412.535 439.246 412.666 438.966 412.911C438.686 413.155 438.506 413.495 438.463 413.864L423.273 541.475C423.143 542.568 422.616 543.576 421.792 544.307C420.969 545.038 419.906 545.442 418.805 545.443H403.481C402.292 545.441 401.153 544.969 400.31 544.131C399.468 543.293 398.991 542.156 398.983 540.967C398.949 532.951 398.895 524.877 398.84 516.802C398.354 444.88 397.851 370.51 412.869 341.374L413.005 341.109L467.198 340.182L467.334 340.48C483.73 376.31 478.754 456.355 473.941 533.763L473.478 541.222C473.405 542.364 472.9 543.436 472.066 544.22C471.232 545.004 470.131 545.441 468.987 545.443Z" fill="#2F2E41"/>
<path d="M443.314 244.425C456.878 244.425 467.875 233.428 467.875 219.864C467.875 206.299 456.878 195.303 443.314 195.303C429.749 195.303 418.753 206.299 418.753 219.864C418.753 233.428 429.749 244.425 443.314 244.425Z" fill="#A0616A"/>
<path d="M409.829 345.623L410.505 317.463L405.633 295.492C404.402 290.051 404.474 284.397 405.843 278.989C407.211 273.581 409.838 268.574 413.508 264.373C417.079 260.194 421.588 256.918 426.666 254.813C431.743 252.707 437.247 251.832 442.728 252.258C443.081 252.285 443.436 252.315 443.792 252.347C448.475 252.769 453.025 254.129 457.17 256.346C461.316 258.564 464.973 261.593 467.923 265.254C470.935 268.936 473.175 273.186 474.508 277.752C475.842 282.317 476.243 287.105 475.687 291.828L469.793 343.345L409.829 345.623Z" fill="#04334D"/>
<path d="M388.965 396.093C390.123 395.188 391.07 394.041 391.737 392.731C392.404 391.421 392.776 389.98 392.826 388.511C392.876 387.042 392.604 385.579 392.028 384.227C391.452 382.874 390.586 381.665 389.492 380.683L403.32 347.732L385.07 351.16L374.736 381.925C373.209 383.872 372.449 386.312 372.6 388.783C372.751 391.253 373.803 393.582 375.557 395.329C377.311 397.075 379.645 398.118 382.116 398.259C384.587 398.399 387.024 397.629 388.965 396.093Z" fill="#A0616A"/>
<path d="M493.308 400.043C492.203 399.074 491.323 397.874 490.732 396.528C490.14 395.182 489.851 393.723 489.885 392.253C489.918 390.784 490.273 389.339 490.925 388.021C491.577 386.704 492.51 385.545 493.659 384.627L481.727 350.943L499.753 355.404L508.32 386.707C509.734 388.738 510.354 391.218 510.062 393.675C509.771 396.133 508.588 398.399 506.737 400.042C504.887 401.686 502.498 402.594 500.023 402.594C497.548 402.594 495.159 401.686 493.308 400.043Z" fill="#A0616A"/>
<path d="M391.16 379.947C390.526 379.947 389.899 379.813 389.321 379.554L378.8 374.841C377.788 374.389 376.979 373.579 376.527 372.567C376.076 371.554 376.015 370.411 376.356 369.356L394.004 314.536L400.824 273.237C401.066 271.769 401.601 270.365 402.397 269.109C403.193 267.853 404.234 266.769 405.457 265.923C406.68 265.077 408.061 264.486 409.518 264.184C410.974 263.882 412.476 263.877 413.935 264.168C415.393 264.459 416.779 265.04 418.008 265.877C419.238 266.714 420.286 267.79 421.091 269.04C421.896 270.291 422.442 271.691 422.695 273.156C422.948 274.622 422.904 276.123 422.565 277.572L412.2 321.864L395.465 376.759C395.184 377.682 394.614 378.49 393.839 379.064C393.064 379.638 392.125 379.947 391.16 379.947Z" fill="#04334D"/>
<path d="M491.522 379.947C490.558 379.947 489.619 379.638 488.844 379.064C488.068 378.49 487.498 377.682 487.217 376.759L470.491 321.895L460.117 277.572C459.778 276.123 459.734 274.622 459.987 273.156C460.24 271.69 460.786 270.291 461.591 269.04C462.396 267.79 463.445 266.714 464.674 265.877C465.904 265.04 467.289 264.458 468.747 264.167C470.206 263.877 471.708 263.882 473.165 264.184C474.621 264.485 476.002 265.077 477.225 265.923C478.449 266.769 479.489 267.852 480.285 269.109C481.081 270.365 481.616 271.769 481.859 273.237L488.696 314.609L506.327 369.356C506.667 370.411 506.606 371.554 506.155 372.567C505.704 373.579 504.894 374.389 503.882 374.841L493.361 379.554C492.783 379.813 492.156 379.947 491.522 379.947Z" fill="#04334D"/>
<path d="M443.819 192.714C436.993 189.758 428.076 193.437 425.321 200.347C423.606 204.647 424.13 209.498 425.075 214.03C426.02 218.562 427.368 223.085 427.223 227.712C427.078 232.34 425.085 237.251 420.98 239.392C418.527 240.671 415.658 240.813 412.999 241.576C410.34 242.339 407.596 244.123 407.213 246.862C406.633 251.007 411.661 254.163 411.627 258.348C411.592 262.782 406.05 265.415 405.332 269.79C405.209 271.072 405.412 272.363 405.925 273.544C406.437 274.725 407.241 275.756 408.261 276.54C410.319 278.086 412.657 279.218 415.146 279.873C434.294 285.993 454.682 287.155 474.401 283.249C478.319 282.468 482.352 281.411 485.396 278.824C488.441 276.236 490.182 271.707 488.432 268.115C485.809 262.731 477.479 262.424 474.576 257.184C472.835 254.042 473.636 250.183 474.003 246.609C474.95 237.378 477.134 226.595 474.841 217.604C472.769 209.48 468.271 198.984 461.841 193.604C457.228 189.744 448.42 191.502 442.523 192.693L443.819 192.714Z" fill="#2F2E41"/>
<path d="M643.463 569.058H293.463C293.198 569.058 292.943 568.953 292.756 568.765C292.568 568.578 292.463 568.323 292.463 568.058C292.463 567.793 292.568 567.539 292.756 567.351C292.943 567.163 293.198 567.058 293.463 567.058H643.463C643.728 567.058 643.982 567.163 644.17 567.351C644.358 567.539 644.463 567.793 644.463 568.058C644.463 568.323 644.358 568.578 644.17 568.765C643.982 568.953 643.728 569.058 643.463 569.058Z" fill="#CCCCCC"/>
<path d="M606.609 546.287C592.189 565.598 562.257 567.63 562.257 567.63C562.257 567.63 555.704 538.353 570.123 519.042C584.543 499.731 614.475 497.699 614.475 497.699C614.475 497.699 621.029 526.976 606.609 546.287Z" fill="#E6E6E6"/>
<path d="M533.152 553.546C542.667 566.289 562.419 567.63 562.419 567.63C562.419 567.63 566.743 548.311 557.228 535.568C547.713 522.826 527.962 521.484 527.962 521.484C527.962 521.484 523.637 540.803 533.152 553.546Z" fill="#E6E6E6"/>
</g>
<defs>
<clipPath id="clip0_2_223">
<rect width="644.463" height="569.058" fill="white"/>
</clipPath>
</defs>
</svg>
