<svg width="32" height="32" viewBox="0 0 32 32" fill="none" xmlns="http://www.w3.org/2000/svg">
<g id="raphael:twitterbird">
<path id="Vector" d="M30 7.60397C28.9517 8.05396 27.8393 8.34887 26.7003 8.4788C27.8963 7.78203 28.7925 6.69177 29.2248 5.40785C28.0967 6.0536 26.8631 6.50872 25.5768 6.75365C24.7111 5.86207 23.5655 5.27148 22.3175 5.0734C21.0695 4.87531 19.7888 5.08079 18.6737 5.65799C17.5587 6.23519 16.6717 7.15188 16.1501 8.26604C15.6285 9.38021 15.5014 10.6296 15.7885 11.8207C13.5043 11.7096 11.2698 11.1352 9.22992 10.1349C7.19009 9.13457 5.39054 7.73068 3.94806 6.0143C3.43727 6.86233 3.1688 7.82643 3.17017 8.80783C3.16906 9.7224 3.40175 10.6231 3.84754 11.4297C4.29333 12.2362 4.93839 12.9238 5.72533 13.431C4.81319 13.4037 3.92106 13.1657 3.12347 12.7368V12.8052C3.12287 14.0883 3.58158 15.332 4.42169 16.325C5.2618 17.3181 6.4315 17.9993 7.73209 18.2529C7.25175 18.382 6.74472 18.4426 6.21901 18.4426C5.84808 18.4426 5.48916 18.4129 5.13824 18.3446C5.50541 19.4483 6.22003 20.4134 7.18221 21.1052C8.14439 21.7969 9.30603 22.1806 10.5047 22.2026C8.0939 24.0227 5.03718 24.8482 2 24.4994C4.62531 26.1353 7.68314 27.0036 10.8063 27C21.3738 27 27.1486 18.5329 27.1486 11.1936C27.1486 10.9523 27.146 10.7136 27.1353 10.4749C28.2605 9.69278 29.2305 8.72064 29.9987 7.60526" fill="#1D9BF0"/>
</g>
</svg>
